HIERARCHY
ROOT Hips
{
	OFFSET -3.958830 18.904000 13.208200
	CHANNELS 6 Xposition Yposition Zposition Zrotation Yrotation Xrotation 
	JOINT LHipJoint
	{
		OFFSET 0.000000 0.000000 0.000000
		CHANNELS 3 Zrotation Yrotation Xrotation
		JOINT LeftUpLeg
		{
			OFFSET 1.800000 -1.400000 0.085000
			CHANNELS 3 Zrotation Yrotation Xrotation
			JOINT LeftLeg
			{
				OFFSET 2.215000 -6.000000 0.000000
				CHANNELS 3 Zrotation Yrotation Xrotation
				JOINT LeftFoot
				{
					OFFSET 2.500000 -6.900000 0.000000
					CHANNELS 3 Zrotation Yrotation Xrotation
					JOINT LeftToeBase
					{
						OFFSET 0.200000 -0.500000 1.950000
						CHANNELS 3 Zrotation Yrotation Xrotation
						End Site
						{
							OFFSET 0.000000 0.000000 0.000000
						}
					}
				}
			}
		}
	}
	JOINT RHipJoint
	{
		OFFSET 0.000000 0.000000 0.000000
		CHANNELS 3 Zrotation Yrotation Xrotation
		JOINT RightUpLeg
		{
			OFFSET -1.800000 -1.400000 0.085000
			CHANNELS 3 Zrotation Yrotation Xrotation
			JOINT RightLeg
			{
				OFFSET -2.215000 -6.000000 0.000000
				CHANNELS 3 Zrotation Yrotation Xrotation
				JOINT RightFoot
				{
					OFFSET -2.500000 -6.900000 0.000000
					CHANNELS 3 Zrotation Yrotation Xrotation
					JOINT RightToeBase
					{
						OFFSET -0.200000 -0.500000 1.950000
						CHANNELS 3 Zrotation Yrotation Xrotation
						End Site
						{
							OFFSET 0.000000 0.000000 0.000000
						}
					}
				}
			}
		}
	}
	JOINT LowerBack
	{
		OFFSET 0.000000 0.000000 0.000000
		CHANNELS 3 Zrotation Yrotation Xrotation
		JOINT Spine
		{
			OFFSET -0.087000 1.940000 -0.288900
			CHANNELS 3 Zrotation Yrotation Xrotation
			JOINT Spine1
			{
				OFFSET 0.000000 1.950000 0.060000
				CHANNELS 3 Zrotation Yrotation Xrotation
				JOINT Neck
				{
					OFFSET 0.000000 0.000000 0.000000
					CHANNELS 3 Zrotation Yrotation Xrotation
					JOINT Neck1
					{
						OFFSET 0.000000 1.600000 0.340000
						CHANNELS 3 Zrotation Yrotation Xrotation
						JOINT Head
						{
							OFFSET 0.000000 1.667000 -0.240000
							CHANNELS 3 Zrotation Yrotation Xrotation
							End Site
							{
								OFFSET 0.000000 0.000000 0.000000
							}
						}
					}
				}
				JOINT LeftShoulder
				{
					OFFSET 0.000000 0.000000 0.000000
					CHANNELS 3 Zrotation Yrotation Xrotation
					JOINT LeftArm
					{
						OFFSET 2.700000 1.550000 -0.730000
						CHANNELS 3 Zrotation Yrotation Xrotation
						JOINT LeftForeArm
						{
							OFFSET 5.450000 0.000000 0.000000
							CHANNELS 3 Zrotation Yrotation Xrotation
							JOINT LeftHand
							{
								OFFSET 3.450000 0.000000 0.000000
								CHANNELS 3 Zrotation Yrotation Xrotation
								JOINT LeftHandIndex1
								{
									OFFSET 0.750000 0.000000 0.000000
									CHANNELS 3 Zrotation Yrotation Xrotation
									End Site
									{
										OFFSET 0.000000 0.000000 0.000000
									}
								}
							}
						}
					}
				}
				JOINT RightShoulder
				{
					OFFSET 0.000000 0.000000 0.000000
					CHANNELS 3 Zrotation Yrotation Xrotation
					JOINT RightArm
					{
						OFFSET -2.700000 1.550000 -0.730000
						CHANNELS 3 Zrotation Yrotation Xrotation
						JOINT RightForeArm
						{
							OFFSET -5.450000 0.000000 0.000000
							CHANNELS 3 Zrotation Yrotation Xrotation
							JOINT RightHand
							{
								OFFSET -3.450000 0.000000 0.000000
								CHANNELS 3 Zrotation Yrotation Xrotation
								JOINT RightHandIndex1
								{
									OFFSET -0.750000 0.000000 0.000000
									CHANNELS 3 Zrotation Yrotation Xrotation
									End Site
									{
										OFFSET 0.000000 0.000000 0.000000
									}
								}
							}
						}
					}
				}
			}
		}
	}
}
MOTION
Frames: 13
Frame Time: 0.016667
0.195340 16.946160 -0.997440 -1.396998 -7.646098 6.566797 -14.878932 12.779972 2.356766 9.352177 -1.301988 -16.078540 -6.897643 6.758621 15.752923 -0.279273 5.009941 3.532147 -0.747360 -1.152970 -0.871370 18.539915 -11.538221 2.524930 -11.068631 1.019572 -13.724978 9.437030 -6.109093 12.223512 0.586565 -4.778316 3.360846 -0.378850 1.662230 0.201520 -4.309616 0.495711 -6.176484 9.913953 2.113496 -1.455473 -4.975039 1.609091 4.660063 2.087225 -0.940597 -6.585373 -0.346816 1.920581 17.782925 -6.102170 3.452160 21.018020 -14.507237 1.157864 2.092072 -58.146983 0.375850 -5.791611 -11.221270 -15.731648 -0.355061 -5.004198 3.014478 -0.508950 1.294800 -1.287520 0.320020 10.422134 0.211361 2.349066 68.897238 3.947312 -5.610876 13.366720 15.473702 -0.950898 2.021800 -1.798676 -0.625810 0.270760 0.529980 0.101810 
0.194780 16.952730 -1.001640 -1.537907 -7.880098 6.506459 -14.881861 12.782594 2.334701 9.520514 -1.304949 -16.434837 -6.562719 6.803621 16.416929 -0.272220 5.023877 3.510267 -0.750010 -1.166910 -0.865000 18.535399 -11.521491 2.560726 -11.247787 1.035693 -13.578177 9.990084 -6.173819 11.817829 0.569618 -4.791700 3.346988 -0.397600 1.638170 0.202970 -4.297728 0.490645 -6.190592 9.549105 2.446261 -1.367899 -4.237183 1.901345 4.716459 1.900918 -0.766317 -6.714494 -0.120412 1.648432 18.239194 -5.998410 3.224390 21.159630 -14.035975 1.060250 2.231737 -58.922482 0.353369 -5.980125 -11.467229 -15.864404 -0.358605 -4.980353 3.015522 -0.487540 1.270450 -1.270780 0.310870 10.348048 0.274943 2.435853 68.665090 3.639562 -5.988876 12.802054 15.766623 -0.972838 2.030938 -1.779442 -0.617770 0.258750 0.533450 0.096240 
0.191150 16.965910 -1.012590 -1.984879 -8.377774 6.390710 -14.882775 12.787117 2.319384 10.146989 -1.268253 -17.036950 -6.220253 6.943123 17.459795 -0.272029 5.053192 3.450843 -0.697990 -1.124840 -0.795400 18.529395 -11.519737 2.599550 -11.171407 1.075179 -13.420547 10.486927 -6.245297 11.647148 0.510462 -4.750876 3.335232 -0.400820 1.545180 0.198040 -4.280879 0.515186 -6.227581 9.025756 3.069950 -1.104403 -2.897585 2.442953 4.774489 1.611357 -0.387465 -6.961628 0.360985 1.011188 19.360743 -5.880180 2.761980 20.404070 -13.458461 0.694121 2.497552 -59.791260 0.330098 -6.269680 -12.471449 -16.442423 -0.280461 -4.889270 3.001790 -0.411180 1.189120 -1.193060 0.297040 10.381197 0.554704 2.632847 67.887052 3.147492 -6.507702 12.260899 16.255155 -0.936956 2.045268 -1.730404 -0.592110 0.250820 0.506830 0.072840 
0.185010 16.979380 -1.023550 -2.364364 -8.890729 6.115966 -14.895257 12.806923 2.294716 10.737060 -1.196733 -17.585741 -5.696405 7.106163 18.780054 -0.293594 5.136372 3.366521 -0.680570 -1.131140 -0.755400 18.512442 -11.511559 2.640852 -11.154789 1.079936 -13.050389 10.961471 -6.299402 11.226319 0.468853 -4.725496 3.324789 -0.420120 1.466890 0.191580 -4.230201 0.507943 -6.264299 8.092738 3.840376 -0.828200 -1.245536 3.108474 4.943454 1.283314 0.127193 -7.276561 1.006763 0.324376 20.795251 -5.740580 2.245800 19.994970 -12.577515 0.163921 2.825451 -60.842702 0.000493 -6.445158 -13.903857 -17.342508 -0.130622 -4.816587 2.990694 -0.327550 1.121070 -1.139220 0.266190 10.233706 0.922084 2.882395 67.308455 2.700951 -6.991850 11.412589 16.588220 -0.912335 2.043476 -1.668205 -0.586760 0.241010 0.516020 0.037300 
0.177030 16.991480 -1.033250 -2.676542 -9.598369 5.828771 -14.918913 12.822028 2.272621 11.274106 -1.105467 -18.123434 -5.228566 7.336212 20.242903 -0.291412 5.267669 3.277034 -0.673930 -1.151840 -0.720610 18.486393 -11.494671 2.680358 -11.245523 1.094746 -12.723863 11.556857 -6.385756 10.859679 0.433073 -4.723867 3.307430 -0.448630 1.408010 0.191520 -4.148739 0.496125 -6.297479 6.796564 4.679056 -0.574411 0.581241 3.820749 5.158071 0.972171 0.725150 -7.625376 1.805320 -0.180326 22.190621 -5.477980 1.916930 19.927150 -11.603886 -0.366308 3.205919 -61.922718 -0.297107 -6.723793 -15.352228 -18.730798 0.085608 -4.754812 2.995140 -0.261890 1.067860 -1.097790 0.237730 10.006283 1.258988 3.118547 66.628975 2.332208 -7.339393 10.898195 16.783073 -0.857614 2.047797 -1.618636 -0.579850 0.227760 0.526350 0.008600 
0.172590 17.002690 -1.042600 -3.106793 -9.968933 5.564966 -14.948798 12.832098 2.254501 11.823168 -1.042194 -18.848702 -4.611942 7.556660 21.927987 -0.292133 5.435630 3.181548 -0.673850 -1.170900 -0.698050 18.460572 -11.467050 2.712222 -11.151478 1.085203 -12.348654 12.136831 -6.467498 10.511888 0.402719 -4.732829 3.291767 -0.467250 1.369250 0.189190 -4.062755 0.466145 -6.322910 5.591637 5.407858 -0.356815 2.592935 4.394053 5.418991 0.576619 1.287432 -7.864082 2.559377 -0.775889 23.427657 -5.309360 1.501380 19.827270 -10.521444 -0.741494 3.487765 -63.405562 -1.008095 -6.762866 -16.746589 -20.064361 0.337724 -4.709239 2.996299 -0.209520 1.030190 -1.066950 0.215950 9.849758 1.415949 3.222535 65.830175 2.073121 -7.486990 10.202017 16.624566 -0.833219 2.050698 -1.570382 -0.582120 0.228170 0.539250 -0.012970 
0.174990 17.007170 -1.049930 -3.497196 -10.287693 5.271423 -14.983129 12.827761 2.250903 12.194565 -1.021381 -19.638874 -4.025863 7.811827 23.864053 -0.251267 5.595987 3.088159 -0.625010 -1.117560 -0.647410 18.432112 -11.439017 2.735873 -11.200535 1.056661 -12.037518 12.859553 -6.606306 10.402233 0.349505 -4.765064 3.263909 -0.459440 1.298920 0.183830 -3.968105 0.448890 -6.350076 4.325059 6.031587 -0.129707 4.639025 4.841527 5.704502 0.240213 1.956823 -8.085341 3.504773 -1.391367 24.736034 -5.090920 1.261920 19.606800 -9.457271 -1.103336 3.774019 -64.908000 -1.855433 -6.670571 -18.707492 -21.388717 0.765464 -4.620320 3.037860 -0.172800 0.975410 -1.011770 0.217760 9.606840 1.487803 3.251444 64.943524 2.000239 -7.390894 9.580998 16.176313 -0.822919 2.076737 -1.558303 -0.554280 0.210190 0.499130 -0.021350 
0.184700 17.007590 -1.049390 -3.931865 -10.525551 4.975206 -15.016117 12.826380 2.251982 12.585069 -1.009990 -20.178432 -3.580143 8.024763 25.378041 -0.241442 5.773917 3.005158 -0.593000 -1.100150 -0.597400 18.406132 -11.404005 2.749121 -11.233665 1.009913 -11.631161 13.490712 -6.749623 10.314541 0.309049 -4.804040 3.243439 -0.455450 1.254840 0.170520 -3.880670 0.401178 -6.373030 3.372646 6.502542 0.043018 6.588459 5.144306 6.063342 -0.099415 2.480925 -8.276767 4.212914 -1.899123 25.959912 -4.940080 1.054660 19.433350 -8.543468 -1.485244 4.017116 -66.410403 -2.778837 -6.407236 -20.721959 -22.661200 1.225445 -4.554798 3.056151 -0.126290 0.935880 -0.979890 0.213410 9.516954 1.608223 3.292483 63.683957 1.929575 -7.248012 9.326953 15.837320 -0.767051 2.084033 -1.533179 -0.557410 0.215960 0.478140 -0.043680 
0.195760 16.999560 -1.046590 -4.455613 -10.996092 4.785466 -15.044981 12.833509 2.256964 13.134304 -0.934834 -20.426157 -3.415354 8.277416 26.458097 -0.263822 5.966786 2.904127 -0.576220 -1.101120 -0.563750 18.385445 -11.371061 2.742741 -11.026687 1.016914 -11.476791 13.897417 -6.905377 10.642072 0.287642 -4.829281 3.210657 -0.447500 1.217850 0.160610 -3.804923 0.339121 -6.378977 2.644147 6.903529 0.128531 8.459110 5.375343 6.483118 -0.459646 2.871526 -8.338594 4.716133 -2.222248 27.028685 -4.728520 0.869240 19.038370 -7.528137 -1.614871 4.171034 -68.129799 -3.821756 -5.908274 -22.702083 -23.706076 1.687187 -4.512154 3.083749 -0.079220 0.904420 -0.965860 0.188350 9.365223 1.536082 3.177221 62.532684 2.194576 -6.889348 8.745157 15.183292 -0.736709 2.083310 -1.505595 -0.571950 0.217500 0.489000 -0.075320 
0.216200 16.993060 -1.046730 -4.947153 -11.490935 4.460715 -15.068997 12.869417 2.281198 13.639932 -0.843534 -20.349804 -3.482813 8.532823 27.249246 -0.272723 6.101447 2.806011 -0.523000 -1.058480 -0.498830 18.357326 -11.372818 2.724568 -10.699037 0.998912 -11.327347 13.792183 -7.005781 11.242638 0.242776 -4.779830 3.201053 -0.434950 1.132500 0.151260 -3.717426 0.275530 -6.421394 2.243931 7.239233 0.444752 10.152228 5.578619 6.845335 -0.756884 2.978082 -8.637468 4.640599 -2.365607 29.238178 -4.307910 0.643830 18.166150 -6.821748 -2.334850 4.424719 -70.088184 -5.091227 -5.343784 -23.429453 -24.602305 1.890706 -4.423406 3.091049 0.001030 0.831060 -0.900820 0.168680 9.416112 2.267953 3.455490 61.047169 2.199792 -6.718667 8.314436 14.855433 -0.642456 2.089506 -1.457011 -0.561580 0.215860 0.474080 -0.108350 
0.235650 16.979150 -1.045020 -5.282886 -11.874233 4.127312 -15.107221 12.923355 2.315042 14.153369 -0.764866 -20.082693 -3.846559 8.821937 27.664684 -0.277017 6.223537 2.721990 -0.464420 -1.004140 -0.426930 18.315868 -11.351383 2.685634 -10.455691 0.991977 -11.290388 13.657863 -7.158554 12.165230 0.199783 -4.745125 3.186882 -0.413970 1.056220 0.143380 -3.590917 0.123979 -6.451428 1.609314 7.391896 0.693919 12.008882 5.580488 7.299167 -1.075026 3.022492 -8.850103 4.437450 -2.430010 31.419691 -4.056660 0.665860 17.168930 -6.192257 -3.015363 4.616251 -71.977089 -6.658101 -4.458970 -23.874318 -25.283424 2.036770 -4.347957 3.097564 0.066380 0.768960 -0.839150 0.153280 9.618398 2.972595 3.635265 59.267230 2.435406 -6.326694 7.984677 14.255163 -0.553436 2.099208 -1.414400 -0.549290 0.220180 0.452020 -0.137470 
0.258760 16.952810 -1.043480 -5.538359 -12.121989 3.994103 -15.136046 12.961059 2.373520 14.718211 -0.735212 -19.935915 -4.481182 9.185090 27.933695 -0.283401 6.392561 2.643214 -0.441660 -0.985000 -0.401410 18.287001 -11.321000 2.628055 -10.246255 1.069978 -11.699765 13.457419 -7.383278 13.585608 0.187733 -4.750583 3.170258 -0.398050 1.034040 0.139260 -3.502106 -0.032494 -6.474773 1.363699 7.314095 0.845533 13.225348 5.424615 7.643797 -1.344939 2.889687 -8.858941 3.953603 -2.424005 32.906416 -4.107480 0.727860 16.767340 -5.734211 -3.403350 4.593771 -73.528757 -8.512380 -3.058721 -23.777959 -25.370120 2.063206 -4.325635 3.097072 0.100580 0.750570 -0.819310 0.146730 9.824051 3.434885 3.686156 57.844946 2.905368 -5.836899 7.707958 13.753465 -0.501758 2.093940 -1.389232 -0.556510 0.233340 0.451680 -0.154490 
0.280660 16.925950 -1.043980 -5.587421 -12.205925 3.731741 -15.169670 13.019937 2.448481 15.147407 -0.756639 -19.746445 -5.109898 9.518750 28.192289 -0.297418 6.537948 2.555094 -0.403470 -0.949650 -0.348880 18.246465 -11.305662 2.557761 -10.126153 1.185827 -12.310151 12.966217 -7.659986 15.592867 0.167108 -4.754056 3.144388 -0.378400 0.981010 0.137380 -3.386010 -0.210502 -6.518795 1.124157 7.114523 1.211014 14.002520 5.221570 7.836106 -1.429215 2.793924 -8.927298 3.485900 -2.379867 35.010232 -4.250310 0.986860 15.924710 -5.925210 -4.104510 4.561231 -74.264245 -10.304822 -1.688324 -23.156335 -25.650793 2.015699 -4.301177 3.074291 0.151190 0.716150 -0.776910 0.126080 10.313799 4.189342 3.838015 56.593177 3.385252 -5.366182 7.098574 13.155088 -0.459419 2.091623 -1.347553 -0.553550 0.240380 0.446820 -0.183700 
